<svg xmlns="http://www.w3.org/2000/svg" viewBox="0 0 64 64" shape-rendering="crispEdges">
  <rect width="64" height="64" fill="#1a2332"/>
  <rect x="4" y="4" width="56" height="56" fill="#c9a227" opacity="0.15"/>
  <rect x="20" y="4" width="24" height="8" fill="#c9a227"/>
  <rect x="20" y="12" width="24" height="12" fill="#d4a574"/>
  <rect x="18" y="6" width="8" height="14" fill="#2c1810"/>
  <rect x="38" y="6" width="8" height="14" fill="#2c1810"/>
  <rect x="24" y="16" width="5" height="4" fill="#222"/>
  <rect x="35" y="16" width="5" height="4" fill="#222"/>
  <rect x="12" y="26" width="40" height="26" fill="#8b1e2f"/>
  <rect x="16" y="30" width="32" height="4" fill="#fff"/>
  <rect x="24" y="34" width="16" height="12" fill="#c9a227"/>
  <rect x="28" y="38" width="8" height="4" fill="#1a2332"/>
  <rect x="8" y="28" width="6" height="14" fill="#c9a227"/>
  <rect x="50" y="28" width="6" height="14" fill="#c9a227"/>
  <rect x="22" y="52" width="10" height="10" fill="#111"/>
  <rect x="32" y="52" width="10" height="10" fill="#111"/>
</svg>
